<?xml version="1.0" encoding="UTF-8" standalone="no"?>
<!DOCTYPE svg PUBLIC "-//W3C//DTD SVG 1.1//EN" "http://www.w3.org/Graphics/SVG/1.1/DTD/svg11.dtd">
<svg width="100%" height="100%" viewBox="0 0 924 924" version="1.1" xmlns="http://www.w3.org/2000/svg" xmlns:xlink="http://www.w3.org/1999/xlink" xml:space="preserve" xmlns:serif="http://www.serif.com/" style="fill-rule:evenodd;clip-rule:evenodd;stroke-linejoin:round;stroke-miterlimit:2;">
    <g transform="matrix(1,0,0,1,-1456,-1449)">
        <g id="Artboard1" transform="matrix(1,0,0,1,-0.344455,-0.327441)">
            <rect x="1456.34" y="1449.33" width="923.978" height="923.978" style="fill:none;"/>
            <clipPath id="_clip1">
                <rect x="1456.34" y="1449.33" width="923.978" height="923.978"/>
            </clipPath>
            <g clip-path="url(#_clip1)">
                <g id="Circulo" transform="matrix(0.982769,0,0,0.982769,21.1028,1369.81)">
                    <circle cx="1930.85" cy="551.337" r="470.089" style="fill:white;"/>
                </g>
                <g id="Dolar" transform="matrix(1.94576,0,0,1.94576,144.782,883.526)">
                    <path d="M895.864,546.884C885.287,545.867 876.128,543.771 868.388,540.606L868.382,540.604C860.225,537.22 853.602,532.696 848.504,527.047C843.288,521.267 840.728,515.626 840.728,510.169C840.728,506.8 842.349,503.889 845.677,501.487C848.843,499.201 852.869,498.034 857.767,498.034C861.76,498.034 865.132,498.947 867.893,500.739C870.626,502.513 872.97,505.135 874.905,508.623C877.091,512.466 879.45,515.68 881.988,518.26C884.488,520.803 888.017,522.885 892.556,524.536C893.792,524.985 895.131,525.373 896.574,525.7C896.815,517.619 897.021,509.415 897.121,502.304C897.177,498.362 897.211,494.42 897.21,490.477C897.21,490.2 897.21,489.922 897.209,489.642C887.672,487.852 879.469,485.832 872.599,483.587C863.906,480.746 857.017,476.86 851.915,471.953C846.699,466.936 844.086,460.702 844.086,453.25C844.086,446.161 846.821,439.857 852.319,434.351C857.707,428.955 865.493,424.787 875.698,421.888C881.607,420.209 888.125,419.021 895.254,418.325C895.071,413.951 894.849,408.918 894.484,400.488C894.428,399.183 894.968,397.887 895.056,397.675C896.191,394.949 898.513,393.983 898.916,393.815C899.331,393.642 901.729,392.644 904.542,393.815C907.267,394.949 908.234,397.272 908.402,397.675C909.076,399.295 909.022,399.332 908.947,401.086C908.622,408.726 908.412,413.536 908.24,417.612C909.234,417.596 910.239,417.588 911.252,417.588C912.457,417.588 913.644,417.6 914.813,417.623C914.648,412.796 914.457,407.576 914.112,397.999C914.064,396.674 914.595,395.398 914.683,395.186C915.818,392.461 918.14,391.494 918.543,391.326C918.959,391.153 921.356,390.155 924.169,391.326C926.894,392.461 927.861,394.783 928.029,395.186C928.714,396.831 928.64,396.871 928.577,398.652C928.363,404.681 928.137,410.709 927.936,416.738C927.917,417.317 927.898,417.888 927.879,418.452C932.054,418.923 935.93,419.587 939.508,420.443C947.507,422.356 954.144,424.904 959.422,428.073C964.776,431.287 968.676,434.674 971.147,438.206C973.692,441.846 974.941,445.404 974.941,448.865C974.941,452.149 973.338,455.135 970.034,457.769C966.853,460.304 962.893,461.59 958.143,461.59C953.793,461.59 950.499,460.782 948.239,459.253C946.044,457.768 943.654,455.346 941.086,451.969L941.055,451.925C937.953,447.4 934.234,443.865 929.891,441.33C929.085,440.859 928.189,440.434 927.201,440.053C926.998,447.022 926.901,450.977 926.862,452.558C926.823,454.164 926.657,460.934 926.517,468.979C932.523,470.115 938.134,471.322 943.351,472.599C951.475,474.589 958.386,477.008 964.085,479.85C969.891,482.746 974.415,486.417 977.668,490.847C980.956,495.324 982.616,500.806 982.616,507.302C982.616,515.05 979.79,522.017 974.114,528.192C968.528,534.271 960.364,539.05 949.6,542.49C942.985,544.605 935.609,546.065 927.469,546.867C927.626,551.903 927.788,556.939 927.959,561.975C928.049,564.629 928.179,567.281 928.274,569.935C928.347,571.997 927.838,573.22 927.728,573.485C927.567,573.87 926.644,576.087 924.042,577.17C922.76,577.704 922.745,577.716 921.356,577.716C920.933,577.716 918.503,577.716 916.471,575.684C915.845,575.059 915.325,574.302 914.985,573.485C914.874,573.22 914.365,571.997 914.439,569.935C914.533,567.281 914.663,564.629 914.753,561.975C914.813,560.225 914.996,554.826 915.219,547.568C914.07,547.591 912.907,547.602 911.732,547.602C910.34,547.602 908.968,547.587 907.615,547.557C907.825,553.171 908.044,558.785 908.275,564.399C908.386,567.074 908.544,569.748 908.659,572.424C908.672,572.711 908.747,574.454 908.113,575.979C907.952,576.364 907.027,578.586 904.42,579.671C903.136,580.206 903.12,580.218 901.729,580.218C901.305,580.218 898.87,580.218 896.834,578.182C896.207,577.556 895.686,576.797 895.345,575.979C894.711,574.455 894.786,572.711 894.798,572.424C894.914,569.748 895.072,567.074 895.183,564.399C895.265,562.404 895.541,555.689 895.864,546.884ZM906.248,491.208C906.259,502.488 906.597,516.378 906.912,526.964C908.153,527.016 909.44,527.042 910.773,527.042C912.504,527.042 914.182,526.995 915.805,526.901C916.038,517.795 916.242,508.301 916.334,500.214C916.361,497.803 916.382,495.392 916.393,492.981C913.318,492.403 909.937,491.812 906.248,491.208ZM896.031,438.713C892.668,439.4 889.69,440.394 887.098,441.699C881.941,444.297 879.242,447.321 879.242,450.973C879.242,453.142 880.094,455.01 881.776,456.588C883.608,458.305 886.133,459.77 889.338,461.004C891.805,461.954 894.295,462.75 896.806,463.391C896.544,452.966 896.238,444.444 896.162,442.331C896.116,441.05 896.072,439.847 896.031,438.713ZM915.446,437.777C913.406,437.63 911.208,437.557 908.854,437.557C908.387,437.557 907.925,437.561 907.468,437.568C907.415,439.028 907.358,440.608 907.296,442.331C907.215,444.579 906.874,454.083 906.602,465.415C909.304,465.921 912.494,466.501 916.174,467.155C915.937,454.138 915.591,442.609 915.516,440.103C915.492,439.297 915.469,438.523 915.446,437.777ZM926.859,525.335C930.243,524.515 933.287,523.398 935.991,521.98C942.134,518.761 945.302,514.817 945.302,510C945.302,506.256 943.664,503.225 940.418,500.892C936.96,498.405 932.487,496.517 927.009,495.206C926.787,495.153 926.562,495.099 926.334,495.046C926.408,505.209 926.641,516.498 926.859,525.335Z" style="fill:rgb(220,99,165);"/>
                </g>
                <g id="Tallo" transform="matrix(2.18865,0.0131668,0.013207,1.32348,770.44,1296.04)">
                    <path d="M521.963,570.928L519.392,739.881" style="fill:none;"/>
                </g>
                <g transform="matrix(2.18865,0.0131668,0.013207,1.32348,770.44,1296.04)">
                    <path d="M519.5,759.655C519.5,759.655 519.5,759.655 519.5,759.655C517.706,759.661 515.304,759.13 514.159,758.726C513.632,758.54 509.761,756.946 507.625,754.484C505.488,752.021 502.583,748.795 502.22,745.416C502.015,743.513 502.026,741.557 501.952,739.624C501.941,739.34 501.942,739.054 501.965,738.771C502.863,727.426 503.822,716.093 504.713,704.747C505.065,700.273 507.449,669.942 508.817,648.774C509.859,632.649 510.916,610.119 511.073,606.755C511.917,588.774 511.972,578.832 512.748,560.843C513.021,554.517 515.399,550.716 515.814,550.052C516.31,549.259 519.419,544.289 524.038,545.982C526.627,546.931 528.273,549.75 528.562,550.245C528.859,550.753 530.498,553.559 531.079,558.038C531.328,559.959 531.28,559.971 531.309,561.94C531.478,573.668 531.565,595.342 531.758,607.069C531.813,610.436 532.183,632.988 532.734,649.137C533.458,670.337 534.917,700.726 535.132,705.209C535.678,716.577 536.291,727.934 536.844,739.301C536.858,739.581 536.836,739.864 536.831,740.146C536.65,752.045 534.371,751.822 531.678,754.835C529.541,757.227 526.954,757.89 524.925,758.693C523.217,759.369 521.294,759.65 519.5,759.655Z" style="fill:rgb(21,132,99);"/>
                </g>
                <g id="Iz_hoja" transform="matrix(-1.77335,-0.0121596,-0.0407573,1.67759,2845.95,1073.61)">
                    <path d="M518.492,666.793C518.214,668.397 519.133,669.947 520.612,670.368C568.622,684.063 597.886,678.055 615.591,665.913C633.768,653.448 640.093,634.389 641.883,622.012C642.836,615.424 643.409,610.802 643.26,607.713C643.112,604.649 642.232,602.693 640.907,601.462C639.58,600.229 637.636,599.566 634.772,599.784C631.893,600.004 627.713,601.141 621.839,602.821C616.388,604.382 593.757,604.788 582.499,606.548C527.296,615.177 518.492,666.793 518.492,666.793Z" style="fill:rgb(21,132,99);"/>
                </g>
                <g id="De_hoja" transform="matrix(1.77335,-0.0121596,0.0407573,1.67759,991.406,1073.61)">
                    <path d="M518.492,666.793C518.492,666.793 527.296,615.177 582.499,606.548C593.757,604.788 616.388,604.382 621.839,602.821C627.713,601.141 631.893,600.004 634.772,599.784C637.636,599.566 639.58,600.229 640.907,601.462C642.232,602.693 643.112,604.649 643.26,607.713C643.409,610.802 642.836,615.424 641.883,622.012C640.093,634.389 633.768,653.448 615.591,665.913C597.886,678.055 568.622,684.063 520.612,670.368C519.133,669.947 518.214,668.397 518.492,666.793Z" style="fill:rgb(21,132,99);"/>
                </g>
                <g id="De_petalo">
                    <g id="De_petalo1" serif:id="De_petalo" transform="matrix(2.62118,0.277297,-0.26462,2.57652,643.216,500.349)">
                        <path d="M554.246,378.099C555.365,378.099 555.345,378.099 558.123,364.662C574.271,383.005 638.345,437.488 605.344,491.305C592.691,511.939 571.588,515.454 552.588,513.387C532.037,511.152 525.223,500.873 524.228,492.022L554.246,378.099Z" style="fill:rgb(242,213,229);"/>
                    </g>
                    <g transform="matrix(2.62118,0.277297,-0.26462,2.57652,643.216,500.349)">
                        <path d="M551.122,374.479C551.513,372.813 552.362,369.1 553.483,363.682C553.851,361.9 555.172,360.477 556.9,360.003C558.628,359.528 560.468,360.082 561.66,361.436C571.522,372.639 598.847,397.168 611.954,426.767C621.161,447.56 623.525,470.76 609.365,493.851C595.594,516.308 572.749,520.436 552.069,518.186C528.108,515.579 520.676,502.905 519.516,492.585C519.219,489.94 521.089,487.54 523.689,487.229C526.29,486.918 528.642,488.814 528.94,491.459C529.77,498.846 535.954,506.723 553.106,508.589C570.428,510.473 589.787,507.571 601.323,488.759C616.728,463.637 609.129,438.386 596.141,417.249C585.234,399.497 570.477,384.527 560.869,374.579C560.336,376.956 559.987,378.273 559.701,379.006L558.771,380.724L557.369,382.048L555.989,382.691L554.231,382.925C551.614,382.925 549.495,380.763 549.503,378.099C549.508,376.658 550.134,375.363 551.122,374.479Z" style="fill:rgb(220,99,165);"/>
                    </g>
                </g>
                <g id="Iz_petalo">
                    <g id="Iz_petalo1" serif:id="Iz_petalo" transform="matrix(-2.66101,0.281511,0.265512,2.5852,3208.84,494.437)">
                        <path d="M554.246,378.099C555.365,378.099 555.345,378.099 558.123,364.662C574.271,383.005 634.737,437.163 601.735,490.98C588.941,511.845 568.347,515.367 550.07,513.146C535.769,511.409 520.427,499.39 520.121,490.354L554.246,378.099Z" style="fill:rgb(242,213,229);"/>
                    </g>
                    <g transform="matrix(-2.66101,0.281511,0.265512,2.5852,3208.84,494.437)">
                        <path d="M551.195,374.467C550.206,375.35 549.579,376.65 549.574,378.099C549.566,380.754 551.653,382.909 554.231,382.909L555.955,382.68L557.31,382.048L558.699,380.736L559.628,379.018C559.916,378.281 560.267,376.952 560.806,374.548C570.132,384.45 584.159,399.327 594.342,416.983C606.499,438.065 613.207,463.275 597.788,488.421C586.134,507.426 567.279,510.392 550.631,508.37C543.006,507.443 535.06,503.204 529.854,498.245C527.026,495.551 524.878,492.79 524.79,490.172C524.7,487.519 522.535,485.447 519.958,485.548C517.382,485.648 515.363,487.883 515.452,490.536C515.608,495.151 518.513,500.566 523.498,505.315C530.008,511.517 539.972,516.765 549.508,517.923C569.416,520.342 591.748,516.265 605.683,493.539C623.265,464.867 616.241,436.091 602.379,412.053C589.177,389.161 569.782,370.733 561.589,361.426C560.412,360.089 558.605,359.546 556.911,360.021C555.216,360.495 553.92,361.906 553.554,363.674C552.434,369.091 551.585,372.803 551.195,374.467Z" style="fill:rgb(220,99,165);"/>
                    </g>
                </g>
                <g id="Ctr_Petalo">
                    <g id="ctl_petalo" transform="matrix(1.87499,-0.0176136,0.0268513,2.85835,944.815,584.385)">
                        <path d="M553.123,494.441C549.931,496.254 531.496,504.299 513.517,503.96C497.013,503.649 480.78,496.004 474.955,492.646C440.263,472.645 410.002,433.733 516.25,345.326C536.855,374.716 628.704,451.525 553.123,494.441Z" style="fill:rgb(242,213,229);"/>
                    </g>
                    <g transform="matrix(1.87499,-0.0176136,0.0268513,2.85835,944.815,584.385)">
                        <path d="M557.486,497.748C553.928,499.768 533.366,508.709 513.326,508.332C495.056,507.987 477.002,499.648 470.554,495.93C455.669,487.349 441.623,475.491 437.326,458.318C431.145,433.617 445.441,397.182 511.015,342.618C512.451,341.423 514.732,340.804 517.036,340.983C519.341,341.163 521.337,342.115 522.306,343.498C534.783,361.295 573.006,396.361 585.223,430.888C593.855,455.285 589.824,479.385 557.486,497.748ZM548.76,491.135C576.888,475.163 579.743,454.086 572.235,432.866C561.552,402.672 530.396,372.126 515.058,353.463C420.494,434.618 446.723,470.547 479.356,489.361C484.557,492.36 498.969,499.311 513.709,499.589C529.627,499.889 545.934,492.74 548.76,491.135Z" style="fill:rgb(220,99,165);"/>
                    </g>
                </g>
                <g id="De_caliz" transform="matrix(0.281429,0.293949,-0.792019,0.340132,2157.72,1717.68)">
                    <path d="M537.192,506.363C523.315,510.066 485.78,506.558 458.986,489.19C445.134,480.211 433.875,467.201 432.793,449.292C431.309,424.723 449.051,389.932 506.212,342.369C508.167,340.742 512.477,340.174 517.299,340.906C522.12,341.639 526.599,343.543 528.82,345.804C533.661,350.734 578.275,395.565 588.234,437.318C595.13,466.23 585.316,493.522 537.192,506.363Z" style="fill:rgb(21,132,99);"/>
                </g>
                <g id="Iz_caliz" transform="matrix(-0.281429,0.293949,0.792019,0.340132,1679.63,1717.68)">
                    <path d="M537.192,506.363C585.316,493.522 595.13,466.23 588.234,437.318C578.275,395.565 533.661,350.734 528.82,345.804C526.599,343.543 522.12,341.639 517.299,340.906C512.477,340.174 508.167,340.742 506.212,342.369C449.051,389.932 431.309,424.723 432.793,449.292C433.875,467.201 445.134,480.211 458.986,489.19C485.78,506.558 523.315,510.066 537.192,506.363Z" style="fill:rgb(21,132,99);"/>
                </g>
            </g>
        </g>
    </g>
</svg>
